:SAMPLES-PER-SECOND 30
:FULLY-SPECIFIED
:DEGREES
529
root  -20.3475 39.5267 1.8275 7.95129 79.2954 8.11749
RightUpLeg  0.422285 -7.81787 -0.255282
RightLeg  15.503 6.86046 1.36568
RightFoot  -14.6291 -0.236133 -4.78352
RightToes  4.6566e-010 0 -3.6325e-017
Spine  8.68113 -1.2225 8.83106
Spine1  3.93069 0.0755122 -2.09061
HEad  -24.3726 5.73202 -4.73833
LeftShoulder1  -0.121859 3.83131 -31.0909
LeftArm  2.70462 7.76618 -42.2765
LeftForeArm  20.2659 -26.5895 -4.60515
LeftHand  -0.0240476 2.46682 0.423183
RightShoulder  -0.646242 -5.3036 29.1786
RightArm  23.1917 8.79632 49.3593
RightForeArm  6.59014 13.8931 7.58879
RightHand  -0.45494 4.54921 -5.59552
LeftUpLeg  -18.1483 -1.44079 2.84674
LeftLeg  34.6694 2.50868 2.25884
LeftFoot  -3.75724 0.371517 -5.266
LeftToes  -4.59298e-010 2.08438e-011 -1.27151e-011
530
root  -19.4915 39.5361 2.01612 8.85962 78.0678 9.16983
RightUpLeg  2.66656 -7.87128 -0.859739
RightLeg  14.0358 8.15876 1.15041
RightFoot  -15.0713 -0.256489 -4.74488
RightToes  4.6566e-010 0 -3.6325e-017
Spine  8.59465 -0.881336 8.26516
Spine1  3.99348 0.293083 -2.37328
HEad  -25.0595 6.2973 -4.99167
LeftShoulder1  -0.106312 3.78776 -31.3204
LeftArm  4.24757 7.5362 -42.0866
LeftForeArm  17.8114 -22.8331 -4.1358
LeftHand  -0.0186848 2.7063 0.199789
RightShoulder  -0.581619 -5.15648 28.4265
RightArm  24.4214 11.7403 50.5964
RightForeArm  5.14595 14.6505 7.44499
RightHand  -0.470208 4.94996 -5.56966
LeftUpLeg  -18.8411 0.1068 2.12597
LeftLeg  26.301 -0.76196 -0.0451401
LeftFoot  -2.85838 0.407595 -5.25478
LeftToes  -4.59298e-010 2.08438e-011 -1.27151e-011
531
root  -18.5981 39.519 2.21627 10.1093 77.415 10.3057
RightUpLeg  4.80669 -8.07171 -1.56396
RightLeg  12.415 9.04739 1.10199
RightFoot  -15.6001 -0.28115 -4.72527
RightToes  4.6566e-010 0 -3.6325e-017
Spine  8.10416 -0.704971 7.59943
Spine1  4.24509 0.374704 -2.87387
HEad  -25.6801 6.72991 -4.85857
LeftShoulder1  -0.0864807 3.73489 -31.3098
LeftArm  2.60285 7.90108 -41.8927
LeftForeArm  18.74 -19.3991 -4.79498
LeftHand  -0.0224947 3.48695 0.150815
RightShoulder  -0.534473 -5.04295 27.9213
RightArm  24.6982 13.9779 51.641
RightForeArm  4.63868 15.3083 7.14412
RightHand  -0.45075 4.61922 -5.50186
LeftUpLeg  -19.2708 1.29139 1.17856
LeftLeg  17.0808 -4.08617 -1.11033
LeftFoot  -1.74284 0.515243 -6.00576
LeftToes  -4.59298e-010 2.08438e-011 -1.27151e-011
532
root  -17.6688 39.4859 2.43045 11.2163 76.9048 11.0648
RightUpLeg  6.91412 -8.06007 -2.11562
RightLeg  10.5052 9.68659 0.86934
RightFoot  -16.0651 -0.291038 -4.42502
RightToes  4.6566e-010 0 -3.6325e-017
Spine  7.3993 -0.528035 6.97287
Spine1  4.62443 0.546713 -3.59355
HEad  -25.7888 7.16651 -4.33617
LeftShoulder1  -0.0827737 3.72538 -31.2281
LeftArm  -0.895065 8.28154 -41.5502
LeftForeArm  22.2664 -15.8044 -5.96244
LeftHand  -0.0160053 4.24094 -0.696341
RightShoulder  -0.517357 -4.99684 27.8299
RightArm  25.3246 15.7789 52.1708
RightForeArm  3.12655 15.7048 7.07624
RightHand  -0.563584 5.0113 -6.58787
LeftUpLeg  -19.6285 2.04028 0.352944
LeftLeg  8.09602 -4.0149 -0.640636
LeftFoot  -0.660961 0.614311 -6.53191
LeftToes  -4.59298e-010 2.08438e-011 -1.27151e-011
533
root  -16.6702 39.3762 2.61898 12.2815 76.593 12.2621
RightUpLeg  9.39333 -8.1859 -2.87679
RightLeg  9.18404 10.2298 0.622012
RightFoot  -16.8491 -0.310387 -4.07892
RightToes  4.6566e-010 0 -3.6325e-017
Spine  7.18703 -0.393351 6.5444
Spine1  5.01992 0.870558 -4.62571
HEad  -25.813 7.19733 -3.7663
LeftShoulder1  -0.034493 3.5968 -31.0429
LeftArm  -3.36729 8.96955 -41.0379
LeftForeArm  25.1521 -13.0267 -6.70687
LeftHand  -0.0179174 4.4165 -1.0868
RightShoulder  -0.559534 -5.12341 27.7682
RightArm  25.7917 16.6606 52.3387
RightForeArm  2.35602 16.6484 6.65728
RightHand  -0.548104 5.23897 -6.28301
LeftUpLeg  -19.585 1.82337 -0.174979
LeftLeg  1.52198 -0.147269 -0.655398
LeftFoot  -0.829011 0.64527 -6.9578
LeftToes  -4.59298e-010 2.08438e-011 -1.27151e-011
534
root  -15.5751 39.1557 2.77892 12.4683 76.6095 12.991
RightUpLeg  11.9188 -8.32938 -3.54678
RightLeg  9.10799 10.4517 0.43888
RightFoot  -18.1575 -0.351571 -3.84075
RightToes  4.6566e-010 0 -3.6325e-017
Spine  7.18293 -0.363425 6.2709
Spine1  5.63242 1.09713 -5.4082
HEad  -26.0224 6.93389 -3.26457
LeftShoulder1  -0.0610057 3.66775 -30.9738
LeftArm  -5.30043 9.78655 -40.6737
LeftForeArm  28.0358 -11.0309 -6.93277
LeftHand  -0.0143916 4.39308 -2.15487
RightShoulder  -0.554166 -5.0969 27.9969
RightArm  26.0879 16.9808 51.8861
RightForeArm  1.89413 17.4736 6.28801
RightHand  -0.509813 5.1833 -5.89861
LeftUpLeg  -19.575 1.87069 -0.750026
LeftLeg  -0.975321 3.89857 -1.38309
LeftFoot  -1.11442 0.68845 -7.61012
LeftToes  -4.59298e-010 2.08438e-011 -1.27151e-011
